<svg width="649" height="649" viewBox="0 0 649 649" fill="none" xmlns="http://www.w3.org/2000/svg">
<path fill-rule="evenodd" clip-rule="evenodd" d="M129.034 44.7887C128.998 45.2007 129.026 54.2987 129.095 65.0047C129.217 83.7387 129.847 89.3297 133.18 101.259C134.373 105.528 134.313 106.341 132.55 109.759C130.639 113.465 130.596 117.544 130.339 318.999C130.168 453.114 130.424 526.342 131.078 529.88C133.586 543.444 142.37 554.013 159.601 564.201C172.679 571.934 207.906 591.757 220.637 598.547L229.672 603.367L258.137 588.545C273.792 580.393 297.626 567.883 311.101 560.745C324.576 553.608 342.801 543.964 351.601 539.315C396.623 515.53 435 493.991 442.9 488.074C454.499 479.386 473.066 460.77 481.833 449.039C503.588 419.928 515.331 387.324 518.195 348.078C522.991 282.353 495.709 222.016 443.6 183.103C436.45 177.764 425.875 170.887 420.1 167.822C410.239 162.587 375.06 146.981 356.101 139.43C351.426 137.568 346.251 135.406 344.601 134.626C342.951 133.846 335.976 130.857 329.101 127.984C322.226 125.111 304.226 117.461 289.101 110.985C273.976 104.509 256.876 97.3187 251.101 95.0067C245.326 92.6947 240.151 90.4817 239.601 90.0897C239.051 89.6977 233.876 87.4467 228.101 85.0867C222.326 82.7267 215.801 79.9907 213.601 79.0057C211.401 78.0217 206.901 76.0897 203.601 74.7127C200.301 73.3367 189.051 68.6097 178.601 64.2087C124.896 41.5927 129.168 43.2667 129.034 44.7887ZM212.101 341.495C212.101 438.529 212.438 518.121 212.851 518.365C213.744 518.893 304.23 473.899 339.101 455.587C352.576 448.511 370.667 439.035 379.304 434.53C399.423 424.036 410.163 415.582 420.541 402.071C427.627 392.846 435.404 377.133 438.085 366.624C446.237 334.665 440.551 301.1 422.319 273.539C408.48 252.618 397.909 244.655 364.601 230.066C358.001 227.175 351.251 224.211 349.601 223.479C347.951 222.747 336.926 218.117 325.101 213.189C302.274 203.677 290.493 198.693 285.601 196.478C283.951 195.732 276.301 192.443 268.601 189.17C260.901 185.897 247.176 179.987 238.101 176.035C229.026 172.084 219.464 168 216.851 166.96L212.101 165.068V341.495Z" fill="black"/>
<path fill-rule="evenodd" clip-rule="evenodd" d="M129.034 44.7887C128.998 45.2007 129.026 54.2987 129.095 65.0047C129.217 83.7387 129.847 89.3297 133.18 101.259C134.373 105.528 134.313 106.341 132.55 109.759C130.639 113.465 130.596 117.544 130.339 318.999C130.168 453.114 130.424 526.342 131.078 529.88C133.586 543.444 142.37 554.013 159.601 564.201C172.679 571.934 207.906 591.757 220.637 598.547L229.672 603.367L258.137 588.545C273.792 580.393 297.626 567.883 311.101 560.745C324.576 553.608 342.801 543.964 351.601 539.315C396.623 515.53 435 493.991 442.9 488.074C454.499 479.386 473.066 460.77 481.833 449.039C503.588 419.928 515.331 387.324 518.195 348.078C522.991 282.353 495.709 222.016 443.6 183.103C436.45 177.764 425.875 170.887 420.1 167.822C410.239 162.587 375.06 146.981 356.101 139.43C351.426 137.568 346.251 135.406 344.601 134.626C342.951 133.846 335.976 130.857 329.101 127.984C322.226 125.111 304.226 117.461 289.101 110.985C273.976 104.509 256.876 97.3187 251.101 95.0067C245.326 92.6947 240.151 90.4817 239.601 90.0897C239.051 89.6977 233.876 87.4467 228.101 85.0867C222.326 82.7267 215.801 79.9907 213.601 79.0057C211.401 78.0217 206.901 76.0897 203.601 74.7127C200.301 73.3367 189.051 68.6097 178.601 64.2087C124.896 41.5927 129.168 43.2667 129.034 44.7887ZM212.101 341.495C212.101 438.529 212.438 518.121 212.851 518.365C213.744 518.893 304.23 473.899 339.101 455.587C352.576 448.511 370.667 439.035 379.304 434.53C399.423 424.036 410.163 415.582 420.541 402.071C427.627 392.846 435.404 377.133 438.085 366.624C446.237 334.665 440.551 301.1 422.319 273.539C408.48 252.618 397.909 244.655 364.601 230.066C358.001 227.175 351.251 224.211 349.601 223.479C347.951 222.747 336.926 218.117 325.101 213.189C302.274 203.677 290.493 198.693 285.601 196.478C283.951 195.732 276.301 192.443 268.601 189.17C260.901 185.897 247.176 179.987 238.101 176.035C229.026 172.084 219.464 168 216.851 166.96L212.101 165.068V341.495Z" fill="url(#paint0_linear_2_33)"/>
<mask id="mask0_2_33" style="mask-type:alpha" maskUnits="userSpaceOnUse" x="129" y="44" width="390" height="560">
<path fill-rule="evenodd" clip-rule="evenodd" d="M129.034 44.7887C128.998 45.2007 129.026 54.2987 129.095 65.0047C129.217 83.7387 129.847 89.3297 133.18 101.259C134.373 105.528 134.313 106.341 132.55 109.759C130.639 113.465 130.596 117.544 130.339 318.999C130.168 453.114 130.424 526.342 131.078 529.88C133.586 543.444 142.37 554.013 159.601 564.201C172.679 571.934 207.906 591.757 220.637 598.547L229.672 603.367L258.137 588.545C273.792 580.393 297.626 567.883 311.101 560.745C324.576 553.608 342.801 543.964 351.601 539.315C396.623 515.53 435 493.991 442.9 488.074C454.499 479.386 473.066 460.77 481.833 449.039C503.588 419.928 515.331 387.324 518.195 348.078C522.991 282.353 495.709 222.016 443.6 183.103C436.45 177.764 425.875 170.887 420.1 167.822C410.239 162.587 375.06 146.981 356.101 139.43C351.426 137.568 346.251 135.406 344.601 134.626C342.951 133.846 335.976 130.857 329.101 127.984C322.226 125.111 304.226 117.461 289.101 110.985C273.976 104.509 256.876 97.3187 251.101 95.0067C245.326 92.6947 240.151 90.4817 239.601 90.0897C239.051 89.6977 233.876 87.4467 228.101 85.0867C222.326 82.7267 215.801 79.9907 213.601 79.0057C211.401 78.0217 206.901 76.0897 203.601 74.7127C200.301 73.3367 189.051 68.6097 178.601 64.2087C124.896 41.5927 129.168 43.2667 129.034 44.7887ZM212.101 341.495C212.101 438.529 212.438 518.121 212.851 518.365C213.744 518.893 304.23 473.899 339.101 455.587C352.576 448.511 370.667 439.035 379.304 434.53C399.423 424.036 410.163 415.582 420.541 402.071C427.627 392.846 435.404 377.133 438.085 366.624C446.237 334.665 440.551 301.1 422.319 273.539C408.48 252.618 397.909 244.655 364.601 230.066C358.001 227.175 351.251 224.211 349.601 223.479C347.951 222.747 336.926 218.117 325.101 213.189C302.274 203.677 290.493 198.693 285.601 196.478C283.951 195.732 276.301 192.443 268.601 189.17C260.901 185.897 247.176 179.987 238.101 176.035C229.026 172.084 219.464 168 216.851 166.96L212.101 165.068V341.495Z" fill="black"/>
<path fill-rule="evenodd" clip-rule="evenodd" d="M129.034 44.7887C128.998 45.2007 129.026 54.2987 129.095 65.0047C129.217 83.7387 129.847 89.3297 133.18 101.259C134.373 105.528 134.313 106.341 132.55 109.759C130.639 113.465 130.596 117.544 130.339 318.999C130.168 453.114 130.424 526.342 131.078 529.88C133.586 543.444 142.37 554.013 159.601 564.201C172.679 571.934 207.906 591.757 220.637 598.547L229.672 603.367L258.137 588.545C273.792 580.393 297.626 567.883 311.101 560.745C324.576 553.608 342.801 543.964 351.601 539.315C396.623 515.53 435 493.991 442.9 488.074C454.499 479.386 473.066 460.77 481.833 449.039C503.588 419.928 515.331 387.324 518.195 348.078C522.991 282.353 495.709 222.016 443.6 183.103C436.45 177.764 425.875 170.887 420.1 167.822C410.239 162.587 375.06 146.981 356.101 139.43C351.426 137.568 346.251 135.406 344.601 134.626C342.951 133.846 335.976 130.857 329.101 127.984C322.226 125.111 304.226 117.461 289.101 110.985C273.976 104.509 256.876 97.3187 251.101 95.0067C245.326 92.6947 240.151 90.4817 239.601 90.0897C239.051 89.6977 233.876 87.4467 228.101 85.0867C222.326 82.7267 215.801 79.9907 213.601 79.0057C211.401 78.0217 206.901 76.0897 203.601 74.7127C200.301 73.3367 189.051 68.6097 178.601 64.2087C124.896 41.5927 129.168 43.2667 129.034 44.7887ZM212.101 341.495C212.101 438.529 212.438 518.121 212.851 518.365C213.744 518.893 304.23 473.899 339.101 455.587C352.576 448.511 370.667 439.035 379.304 434.53C399.423 424.036 410.163 415.582 420.541 402.071C427.627 392.846 435.404 377.133 438.085 366.624C446.237 334.665 440.551 301.1 422.319 273.539C408.48 252.618 397.909 244.655 364.601 230.066C358.001 227.175 351.251 224.211 349.601 223.479C347.951 222.747 336.926 218.117 325.101 213.189C302.274 203.677 290.493 198.693 285.601 196.478C283.951 195.732 276.301 192.443 268.601 189.17C260.901 185.897 247.176 179.987 238.101 176.035C229.026 172.084 219.464 168 216.851 166.96L212.101 165.068V341.495Z" fill="url(#paint1_linear_2_33)"/>
</mask>
<g mask="url(#mask0_2_33)">
<path d="M118.5 78.5C121.057 87.9707 117.5 138.5 185 163.5C192.726 166.361 212 175.5 219.5 180" stroke="#50379C" stroke-width="20"/>
</g>
<defs>
<linearGradient id="paint0_linear_2_33" x1="185.5" y1="576.5" x2="392.5" y2="173.5" gradientUnits="userSpaceOnUse">
<stop offset="0.0516047" stop-color="#3B0F71"/>
<stop offset="0.55475" stop-color="#5B47A8"/>
<stop offset="0.700105" stop-color="#685EBF"/>
<stop offset="0.835137" stop-color="#7B84E1"/>
<stop offset="1" stop-color="#8398F1"/>
</linearGradient>
<linearGradient id="paint1_linear_2_33" x1="185.5" y1="576.5" x2="392.5" y2="173.5" gradientUnits="userSpaceOnUse">
<stop offset="0.0516047" stop-color="#3B0F71"/>
<stop offset="0.55475" stop-color="#5B47A8"/>
<stop offset="0.700105" stop-color="#685EBF"/>
<stop offset="0.835137" stop-color="#7B84E1"/>
<stop offset="1" stop-color="#8398F1"/>
</linearGradient>
</defs>
</svg>
